# xmcd
#
# Track frame offsets: 
#        150
#        15773
#        33516
#        49249
#        71669
#        93101
#        116857
#        135613
#        156569
#        179055
#        196798
#
# Disc length: 2922 seconds
#
# Revision: 0
# Processed by: cddbd v1.5.2PL0 Copyright (c) Steve Scherf et al.
# Submitted via: ExactAudioCopyFreeDBPlugin 1.0
#
DISCID=950b680b
DTITLE=Zucchero - Shake
DYEAR=2002
DGENRE=Blues
TTITLE0=Baila Sexy Thing (new intl english no samples)
TTITLE1=Music In Me
TTITLE2=Porca L'Oca (New Version)
TTITLE3=I Lay Down [feat. John Lee Hooker]
TTITLE4=m In Trouble (new eng vers no samples)
TTITLE5=Sparkling Meadows (new eng vers no samples)
TTITLE6=Sento Le Campane
TTITLE7=Bell'Amore Mio
TTITLE8=Rossa Mela Della Sera
TTITLE9=Shake
TTITLE10=Lost Scents
EXTD=
EXTT0=
EXTT1=
EXTT2=
EXTT3=
EXTT4=
EXTT5=
EXTT6=
EXTT7=
EXTT8=
EXTT9=
EXTT10=
PLAYORDER=
